<svg xmlns="http://www.w3.org/2000/svg" width="80" height="80" viewBox="0 0 80 80"><defs><clipPath id="rri6a"><path fill="#fff" d="M0 40C0 17.909 17.909 0 40 0s40 17.909 40 40-17.909 40-40 40S0 62.091 0 40z"/></clipPath></defs><g><g><path fill="#ced7d8" fill-opacity=".5" d="M0 40C0 17.909 17.909 0 40 0s40 17.909 40 40-17.909 40-40 40S0 62.091 0 40z"/><path fill="none" d="M0 40C0 17.909 17.909 0 40 0s40 17.909 40 40-17.909 40-40 40S0 62.091 0 40z" clip-path="url(&quot;#rri6a&quot;)"/></g><g/></g></svg>