<?xml version="1.0" encoding="iso-8859-1"?>
<!-- Generator: Adobe Illustrator 19.0.0, SVG Export Plug-In . SVG Version: 6.00 Build 0)  -->
<svg version="1.1" id="Capa_1" xmlns="http://www.w3.org/2000/svg" xmlns:xlink="http://www.w3.org/1999/xlink" x="0px" y="0px"
	 viewBox="0 0 384.965 384.965" style="enable-background:new 0 0 384.965 384.965;" xml:space="preserve">
<g>
	<g id="Arrow_Dotted_Right_3_">
		<path d="M103.383,107.173C98.98,105.405,104.995,107.847,103.383,107.173L103.383,107.173z"/>
		<path d="M184.142,3.448L99.593,87.516c-6.232,5.943-4.138,16.469,3.79,19.658c1.612,0.674,3.32,0.95,5.041,0.902h168.184
			c10.671,0.289,16.602-12.872,8.927-20.476l-84.2-84.164C196.69-1.147,188.786-1.147,184.142,3.448z M247.614,84.208H137.922
			l54.81-55.279L247.614,84.208z"/>
		<path d="M156.677,156.389c0,19.934,16.157,36.091,36.091,36.091s36.091-16.157,36.091-36.091s-16.157-36.091-36.091-36.091
			S156.677,136.455,156.677,156.389z M204.798,156.389c0,6.641-5.39,12.03-12.03,12.03c-6.641,0-12.03-5.39-12.03-12.03
			c0-6.641,5.39-12.03,12.03-12.03C199.409,144.359,204.798,149.749,204.798,156.389z"/>
		<path d="M156.677,252.632c0,19.934,16.157,36.091,36.091,36.091s36.091-16.157,36.091-36.091s-16.157-36.091-36.091-36.091
			S156.677,232.698,156.677,252.632z M204.798,252.632c0,6.641-5.39,12.03-12.03,12.03c-6.641,0-12.03-5.39-12.03-12.03
			s5.39-12.03,12.03-12.03C199.409,240.602,204.798,245.991,204.798,252.632z"/>
		<path d="M156.677,348.874c0,19.934,16.157,36.091,36.091,36.091s36.091-16.157,36.091-36.091s-16.157-36.091-36.091-36.091
			S156.677,328.94,156.677,348.874z M204.798,348.874c0,6.641-5.39,12.03-12.03,12.03c-6.641,0-12.03-5.39-12.03-12.03
			c0-6.641,5.39-12.03,12.03-12.03C199.409,336.844,204.798,342.234,204.798,348.874z"/>
	</g>
	<g>
	</g>
	<g>
	</g>
	<g>
	</g>
	<g>
	</g>
	<g>
	</g>
	<g>
	</g>
</g>
<g>
</g>
<g>
</g>
<g>
</g>
<g>
</g>
<g>
</g>
<g>
</g>
<g>
</g>
<g>
</g>
<g>
</g>
<g>
</g>
<g>
</g>
<g>
</g>
<g>
</g>
<g>
</g>
<g>
</g>
</svg>
